<svg width="20" height="20" viewBox="0 0 20 20" fill="none" xmlns="http://www.w3.org/2000/svg">
<circle cx="10" cy="10" r="9.5" fill="#E5E5E5" stroke="black"/>
<path d="M10.6699 8.7168V14H9.76172V8.7168H10.6699ZM9.69336 7.31543C9.69336 7.16895 9.7373 7.04525 9.8252 6.94434C9.91634 6.84342 10.0498 6.79297 10.2256 6.79297C10.3981 6.79297 10.5299 6.84342 10.6211 6.94434C10.7155 7.04525 10.7627 7.16895 10.7627 7.31543C10.7627 7.4554 10.7155 7.57585 10.6211 7.67676C10.5299 7.77441 10.3981 7.82324 10.2256 7.82324C10.0498 7.82324 9.91634 7.77441 9.8252 7.67676C9.7373 7.57585 9.69336 7.4554 9.69336 7.31543Z" fill="black"/>
</svg>
